<?xml version="1.0" encoding="UTF-8" standalone="no"?>
<!DOCTYPE svg PUBLIC "-//W3C//DTD SVG 1.1//EN" "http://www.w3.org/Graphics/SVG/1.1/DTD/svg11.dtd">
<svg width="100%" height="100%" viewBox="0 0 30 30" version="1.1" xmlns="http://www.w3.org/2000/svg" xmlns:xlink="http://www.w3.org/1999/xlink" xml:space="preserve" xmlns:serif="http://www.serif.com/" style="fill-rule:evenodd;clip-rule:evenodd;stroke-linejoin:round;stroke-miterlimit:2;">
    <g id="Artboard1" transform="matrix(0.6,0,0,0.6,0,0)">
        <rect x="0" y="0" width="50" height="50" style="fill:none;"/>
        <g transform="matrix(0.0484015,0.000426618,-0.000426618,0.0484015,0.436857,8.76833e-18)">
            <rect x="0" y="0" width="1024" height="1024" style="fill:none;"/>
        </g>
        <g transform="matrix(0.0484015,0.000426618,-0.000426618,0.0484015,0.436857,8.76833e-18)">
            <path d="M1024,512C1024,229.23 794.77,0 512,0C229.23,0 0,229.23 0,512C0,767.554 187.231,979.37 432,1017.78L432,660L302,660L302,512L432,512L432,399.2C432,270.88 508.438,200 625.39,200C681.407,200 740,210 740,210L740,336L675.438,336C611.835,336 592,375.467 592,415.957L592,512L734,512L711.3,660L592,660L592,1017.78C836.769,979.37 1024,767.554 1024,512Z" style="fill:rgb(24,119,242);fill-rule:nonzero;"/>
        </g>
        <g transform="matrix(0.0484015,0.000426618,-0.000426618,0.0484015,0.436857,8.76833e-18)">
            <path d="M711.3,660L734,512L592,512L592,415.957C592,375.467 611.835,336 675.438,336L740,336L740,210C740,210 681.407,200 625.39,200C508.438,200 432,270.88 432,399.2L432,512L302,512L302,660L432,660L432,1017.78C458.465,1021.93 485.212,1024.01 512,1024C539.216,1024 565.933,1021.87 592,1017.78L592,660L711.3,660Z" style="fill:white;fill-rule:nonzero;"/>
        </g>
    </g>
</svg>
