<?xml version="1.0" encoding="UTF-8" standalone="no"?>
<!DOCTYPE svg PUBLIC "-//W3C//DTD SVG 1.1//EN" "http://www.w3.org/Graphics/SVG/1.1/DTD/svg11.dtd">
<svg width="100%" height="100%" viewBox="0 0 30 30" version="1.1" xmlns="http://www.w3.org/2000/svg" xmlns:xlink="http://www.w3.org/1999/xlink" xml:space="preserve" xmlns:serif="http://www.serif.com/" style="fill-rule:evenodd;clip-rule:evenodd;stroke-linejoin:round;stroke-miterlimit:2;">
    <g id="Artboard1" transform="matrix(0.6,0,0,0.6,0,0)">
        <rect x="0" y="0" width="50" height="50" style="fill:none;"/>
        <clipPath id="_clip1">
            <rect x="0" y="0" width="50" height="50"/>
        </clipPath>
        <g clip-path="url(#_clip1)">
            <g transform="matrix(1.80227,0,0,1.80227,-2.03069,-2.03734)">
                <path d="M14.998,1.13C11.231,1.13 10.759,1.146 9.279,1.214C7.803,1.281 6.794,1.516 5.912,1.859C5,2.213 4.226,2.687 3.455,3.459C2.684,4.23 2.209,5.003 1.855,5.916C1.512,6.798 1.278,7.806 1.21,9.283C1.143,10.762 1.127,11.235 1.127,15.002C1.127,18.769 1.143,19.241 1.21,20.721C1.278,22.197 1.512,23.206 1.855,24.088C2.209,25 2.684,25.774 3.455,26.545C4.226,27.316 5,27.791 5.912,28.145C6.794,28.488 7.803,28.722 9.279,28.79C10.759,28.857 11.231,28.873 14.998,28.873C18.765,28.873 19.238,28.857 20.717,28.79C22.194,28.722 23.202,28.488 24.084,28.145C24.997,27.791 25.77,27.316 26.541,26.545C27.313,25.774 27.787,25 28.141,24.088C28.484,23.206 28.719,22.197 28.786,20.721C28.854,19.241 28.87,18.769 28.87,15.002C28.87,11.235 28.854,10.762 28.786,9.283C28.719,7.806 28.484,6.798 28.141,5.916C27.787,5.003 27.313,4.23 26.541,3.459C25.77,2.687 24.997,2.213 24.084,1.859C23.202,1.516 22.194,1.281 20.717,1.214C19.238,1.146 18.765,1.13 14.998,1.13ZM14.998,3.63C18.702,3.63 19.141,3.644 20.603,3.711C21.956,3.772 22.69,3.998 23.179,4.188C23.827,4.44 24.289,4.741 24.774,5.226C25.259,5.711 25.56,6.173 25.812,6.821C26.002,7.31 26.228,8.044 26.289,9.397C26.356,10.859 26.37,11.298 26.37,15.002C26.37,18.706 26.356,19.144 26.289,20.607C26.228,21.96 26.002,22.694 25.812,23.183C25.56,23.83 25.259,24.292 24.774,24.778C24.289,25.263 23.827,25.564 23.179,25.815C22.69,26.005 21.956,26.231 20.603,26.293C19.141,26.36 18.702,26.374 14.998,26.374C11.294,26.374 10.855,26.36 9.393,26.293C8.04,26.231 7.306,26.005 6.817,25.815C6.17,25.564 5.708,25.263 5.222,24.778C4.737,24.292 4.436,23.83 4.185,23.183C3.995,22.694 3.769,21.96 3.707,20.607C3.64,19.144 3.626,18.706 3.626,15.002C3.626,11.298 3.64,10.859 3.707,9.397C3.769,8.044 3.995,7.31 4.185,6.821C4.436,6.173 4.737,5.711 5.222,5.226C5.708,4.741 6.17,4.44 6.817,4.188C7.306,3.998 8.04,3.772 9.393,3.711C10.856,3.644 11.294,3.63 14.998,3.63ZM14.998,19.626C12.444,19.626 10.374,17.556 10.374,15.002C10.374,12.448 12.444,10.378 14.998,10.378C17.552,10.378 19.622,12.448 19.622,15.002C19.622,17.556 17.552,19.626 14.998,19.626ZM14.998,7.879C11.064,7.879 7.875,11.068 7.875,15.002C7.875,18.936 11.064,22.125 14.998,22.125C18.932,22.125 22.121,18.936 22.121,15.002C22.121,11.068 18.932,7.879 14.998,7.879ZM24.067,7.597C24.067,8.517 23.322,9.262 22.403,9.262C21.483,9.262 20.738,8.517 20.738,7.597C20.738,6.678 21.483,5.933 22.403,5.933C23.322,5.933 24.067,6.678 24.067,7.597Z" style="fill:url(#_Linear2);fill-rule:nonzero;"/>
            </g>
        </g>
    </g>
    <defs>
        <linearGradient id="_Linear2" x1="0" y1="0" x2="1" y2="0" gradientUnits="userSpaceOnUse" gradientTransform="matrix(25.7809,-23.6065,23.6065,25.7809,1.12674,27.1335)"><stop offset="0" style="stop-color:rgb(254,203,31);stop-opacity:1"/><stop offset="0.06" style="stop-color:rgb(254,198,30);stop-opacity:1"/><stop offset="0.11" style="stop-color:rgb(253,179,27);stop-opacity:1"/><stop offset="0.44" style="stop-color:rgb(246,31,5);stop-opacity:1"/><stop offset="0.59" style="stop-color:rgb(245,0,0);stop-opacity:1"/><stop offset="0.8" style="stop-color:rgb(215,0,89);stop-opacity:1"/><stop offset="1" style="stop-color:rgb(190,0,164);stop-opacity:1"/></linearGradient>
    </defs>
</svg>
